<?xml version="1.0" encoding="utf-8"?>
<!-- Generator: Adobe Illustrator 21.0.0, SVG Export Plug-In . SVG Version: 6.00 Build 0)  -->
<svg version="1.1" id="Layer_1" xmlns="http://www.w3.org/2000/svg" xmlns:xlink="http://www.w3.org/1999/xlink" x="0px" y="0px"
	 viewBox="0 0 64 64" style="enable-background:new 0 0 64 64;" xml:space="preserve">
<style type="text/css">
	.st0{fill:#039BE5;stroke:#0277BD;stroke-linecap:round;stroke-linejoin:round;stroke-miterlimit:10;}
	.st1{fill:#81D4FA;stroke:#0277BD;stroke-linecap:round;stroke-linejoin:round;stroke-miterlimit:10;}
	.st2{fill:#EC407A;stroke:#0277BD;stroke-linecap:round;stroke-linejoin:round;stroke-miterlimit:10;}
	.st3{fill:#FFA726;stroke:#0277BD;stroke-linecap:round;stroke-linejoin:round;stroke-miterlimit:10;}
	.st4{fill:#80CBC4;stroke:#0277BD;stroke-linecap:round;stroke-linejoin:round;stroke-miterlimit:10;}
	.st5{fill:none;stroke:#F48FB1;stroke-linecap:round;stroke-linejoin:round;stroke-miterlimit:10;}
	.st6{fill:none;stroke:#FFCC80;stroke-linecap:round;stroke-linejoin:round;stroke-miterlimit:10;}
	.st7{fill:none;stroke:#E0F2F1;stroke-linecap:round;stroke-linejoin:round;stroke-miterlimit:10;}
	.st8{fill:none;stroke:#26A69A;stroke-linecap:round;stroke-linejoin:round;stroke-miterlimit:10;}
	.st9{fill:none;stroke:#F57C00;stroke-linecap:round;stroke-linejoin:round;stroke-miterlimit:10;}
	.st10{fill:none;stroke:#D81B60;stroke-linecap:round;stroke-linejoin:round;stroke-miterlimit:10;}
	.st11{fill:#EEEEEE;stroke:#0277BD;stroke-linecap:round;stroke-linejoin:round;stroke-miterlimit:10;}
	.st12{fill:none;stroke:#BDBDBD;stroke-linecap:round;stroke-linejoin:round;stroke-miterlimit:10;}
	.st13{fill:none;stroke:#E1F5FE;stroke-linecap:round;stroke-linejoin:round;stroke-miterlimit:10;}
	.st14{fill:none;stroke:#FFFFFF;stroke-linecap:round;stroke-linejoin:round;stroke-miterlimit:10;}
	.st15{fill:none;stroke:#29B6F6;stroke-linecap:round;stroke-linejoin:round;stroke-miterlimit:10;}
	.st16{fill:none;stroke:#4FC3F7;stroke-linecap:round;stroke-linejoin:round;stroke-miterlimit:10;}
	.st17{fill:none;stroke:#0277BD;stroke-linecap:round;stroke-linejoin:round;stroke-miterlimit:10;}
</style>
<g id="Checklist">
	<path class="st1" d="M48.5,63.5h-42c-1.7,0-3-1.3-3-3v-50c0-1.7,1.3-3,3-3h42c1.7,0,3,1.3,3,3v50C51.5,62.2,50.2,63.5,48.5,63.5z"
		/>
	<path class="st11" d="M44.5,59.5h-34c-1.7,0-3-1.3-3-3v-42c0-1.7,1.3-3,3-3h34c1.7,0,3,1.3,3,3v42C47.5,58.2,46.2,59.5,44.5,59.5z"
		/>
	<path class="st12" d="M44.5,57.5h-34"/>
	<path class="st14" d="M44.5,13.5h-34"/>
	<line class="st11" x1="26.5" y1="22.5" x2="40.5" y2="22.5"/>
	<line class="st11" x1="26.5" y1="49.5" x2="40.5" y2="49.5"/>
	<line class="st11" x1="26.5" y1="35.5" x2="40.5" y2="35.5"/>
	<g>
		<g>
			<path class="st2" d="M59.6,17.1L59.6,17.1c1.2,1.2,1.2,3.1,0,4.2L40.5,40.5l-4.2-4.2l19.1-19.1C56.6,15.9,58.4,15.9,59.6,17.1z"
				/>
			<polygon class="st11" points="36.3,36.2 40.5,40.5 36.3,44.7 29.9,46.8 32,40.5 			"/>
		</g>
		<line class="st11" x1="29.9" y1="46.8" x2="34.2" y2="42.6"/>
		
			<rect x="48.3" y="16.2" transform="matrix(0.7071 0.7071 -0.7071 0.7071 29.4922 -28.8285)" class="st11" width="2.5" height="10"/>
	</g>
	<path class="st3" d="M32.5,5.5c0-2.8-2.2-5-5-5s-5,2.2-5,5h-3c-0.6,0-1,0.4-1,1v6c0,0.6,0.4,1,1,1h16c0.6,0,1-0.4,1-1v-6
		c0-0.6-0.4-1-1-1H32.5z M27.5,7.5c-1.1,0-2-0.9-2-2c0-1.1,0.9-2,2-2s2,0.9,2,2C29.5,6.6,28.6,7.5,27.5,7.5z"/>
	<path class="st9" d="M34.5,11.5h-14"/>
	<g>
		<polyline class="st11" points="21.5,22.5 21.5,26 14.5,26 14.5,19 18,19 		"/>
		<polyline class="st17" points="15.9,21.4 18.1,23.5 22.3,19.3 		"/>
	</g>
	<g>
		<polyline class="st11" points="21.5,35.5 21.5,39 14.5,39 14.5,32 18,32 		"/>
		<polyline class="st17" points="15.9,34.4 18.1,36.5 22.3,32.3 		"/>
	</g>
	<g>
		<polyline class="st11" points="21.5,48.5 21.5,52 14.5,52 14.5,45 18,45 		"/>
		<polyline class="st17" points="15.9,47.4 18.1,49.5 22.3,45.3 		"/>
	</g>
</g>
</svg>
