<?xml version="1.0" encoding="UTF-8" standalone="no"?>
<svg
   version="1.1"
   id="Layer_1"
   x="0px"
   y="0px"
   width="122.88"
   height="122.88"
   viewBox="0 0 122.88 122.88"
   enable-background="new 0 0 122.88 122.88"
   xml:space="preserve"
   xmlns="http://www.w3.org/2000/svg"
   xmlns:svg="http://www.w3.org/2000/svg"><defs
     id="defs1" /><g
     id="g1"
     transform="rotate(90,61.44,61.44)"
     style="display:inline;fill:#ffffff"><path
       fill-rule="evenodd"
       clip-rule="evenodd"
       d="m 12.996,0 h 96.888 c 7.147,0 12.993,5.851 12.993,12.999 l 0.003,96.883 c 0,7.147 -5.851,12.998 -12.999,12.998 L 12.996,122.878 C 5.848,122.878 0,117.032 0,109.884 V 12.996 C 0,5.849 5.848,0.002 12.996,0 Z m 7.606,78.674 h 81.675 c 1.52,0 2.756,1.115 2.756,2.479 l 0.002,18.713 c 0,1.36 -1.24,2.477 -2.758,2.477 L 20.602,102.34 c -1.52,0 -2.758,-1.111 -2.758,-2.474 V 81.149 c 0,-1.362 1.239,-2.473 2.758,-2.475 z"
       id="path1"
       style="display:inline;opacity:1;fill:#ffffff" /></g></svg>
